<?xml version="1.0" encoding="UTF-8"?>
<svg version="1.1" xmlns="http://www.w3.org/2000/svg" width="190" height="110">
<path d="M0 0 C3.20120918 0.72077055 5.04288911 1.57972852 7.57421875 3.6953125 C8.23768311 4.24300293 8.90114746 4.79069336 9.5847168 5.35498047 C10.27863525 5.93908691 10.97255371 6.52319336 11.6875 7.125 C13.12420782 8.31866245 14.56170236 9.51137867 16 10.703125 C16.68964844 11.27611328 17.37929687 11.84910156 18.08984375 12.43945312 C20.40109555 14.3276844 22.78468329 16.10535796 25.1875 17.875 C29.00686876 20.79440256 31.43512291 23.94583944 34 28 C44.76957243 18.78220348 55.5178305 9.54494023 66 0 C66.99 0.33 67.98 0.66 69 1 C69.03450388 7.72670092 69.0146066 14.45168193 68.95727539 21.17822266 C68.94415364 23.46529448 68.94338485 25.75247247 68.95532227 28.03955078 C68.97034701 31.33211517 68.94063169 34.62173888 68.90234375 37.9140625 C68.91659897 38.93303619 68.93085419 39.95200989 68.94554138 41.00186157 C68.8049858 47.92826366 68.8049858 47.92826366 66.53666687 50.94824219 C63.55576675 53.5999111 60.34742716 55.66881215 56.58984375 57.046875 C55.82736328 57.33433594 55.06488281 57.62179688 54.27929688 57.91796875 C53.50650391 58.19253906 52.73371094 58.46710937 51.9375 58.75 C51.16083984 59.04003906 50.38417969 59.33007812 49.58398438 59.62890625 C48.07422057 60.18883559 46.56045322 60.73811384 45.04248047 61.27539062 C43.31098801 61.889671 41.59317672 62.54230485 39.87890625 63.203125 C32.09040499 65.35896524 25.77330019 62.91673245 18.4375 60.3125 C17.42236328 59.97283203 16.40722656 59.63316406 15.36132812 59.28320312 C9.63479238 57.28209495 5.25308617 55.38046646 1 51 C0.03186746 48.09560239 -0.12144834 46.2718176 -0.11352539 43.25317383 C-0.11344986 42.29240433 -0.11337433 41.33163483 -0.11329651 40.3417511 C-0.10813522 39.30729355 -0.10297394 38.272836 -0.09765625 37.20703125 C-0.0962413 36.14586594 -0.09482635 35.08470062 -0.09336853 33.99137878 C-0.08776606 30.59839065 -0.07521314 27.20546823 -0.0625 23.8125 C-0.05748532 21.51367283 -0.05292236 19.21484462 -0.04882812 16.91601562 C-0.03779583 11.27732128 -0.0210553 5.63866534 0 0 Z " fill="#2B356E" transform="translate(61,0)"/>
<path d="M0 0 C0.99 0.33 1.98 0.66 3 1 C3.03450388 7.72670092 3.0146066 14.45168193 2.95727539 21.17822266 C2.94415364 23.46529448 2.94338485 25.75247247 2.95532227 28.03955078 C2.97034701 31.33211517 2.94063169 34.62173888 2.90234375 37.9140625 C2.92372658 39.44252304 2.92372658 39.44252304 2.94554138 41.00186157 C2.8049858 47.92826366 2.8049858 47.92826366 0.53666687 50.94824219 C-2.44423325 53.5999111 -5.65257284 55.66881215 -9.41015625 57.046875 C-10.17263672 57.33433594 -10.93511719 57.62179688 -11.72070312 57.91796875 C-12.49349609 58.19253906 -13.26628906 58.46710937 -14.0625 58.75 C-14.83916016 59.04003906 -15.61582031 59.33007812 -16.41601562 59.62890625 C-18.60378621 60.44028941 -20.79932348 61.22442888 -23 62 C-24.64162109 62.59167969 -24.64162109 62.59167969 -26.31640625 63.1953125 C-29.62099792 64.18620898 -32.57026931 64.13718923 -36 64 C-34.02 63.505 -34.02 63.505 -32 63 C-32.495 45.675 -32.495 45.675 -33 28 C-31.68 27.34 -30.36 26.68 -29 26 C-26.92992159 24.17980759 -24.92646926 22.34182599 -22.9375 20.4375 C-17.93713107 15.72588676 -12.82772705 11.29968039 -7.4375 7.03515625 C-4.79680776 4.83034751 -2.39910339 2.46336508 0 0 Z " fill="#D63978" transform="translate(127,0)"/>
<path d="M0 0 C1.11052734 -0.02900391 2.22105469 -0.05800781 3.36523438 -0.08789062 C4.42935547 -0.09626953 5.49347656 -0.10464844 6.58984375 -0.11328125 C7.56687256 -0.12786377 8.54390137 -0.14244629 9.55053711 -0.1574707 C12.0625 0.3125 12.0625 0.3125 13.88623047 2.13696289 C15.53686615 5.18985092 15.35328122 7.61979252 15.25 11.0625 C15.22292969 12.23296875 15.19585937 13.4034375 15.16796875 14.609375 C15.13316406 15.50140625 15.09835938 16.3934375 15.0625 17.3125 C13.125 17.875 13.125 17.875 11.0625 18.3125 C10.0625 17.3125 10.0625 17.3125 9.96484375 14.37109375 C9.97644531 13.17613281 9.98804687 11.98117188 10 10.75 C10.00902344 9.55246094 10.01804687 8.35492188 10.02734375 7.12109375 C10.03894531 6.19425781 10.05054687 5.26742187 10.0625 4.3125 C9.0725 4.6425 8.0825 4.9725 7.0625 5.3125 C6.7325 9.2725 6.4025 13.2325 6.0625 17.3125 C4.7425 17.6425 3.4225 17.9725 2.0625 18.3125 C0.80012269 15.78774538 0.96393596 14.00049534 1 11.1875 C1.00902344 10.27742188 1.01804687 9.36734375 1.02734375 8.4296875 C1.03894531 7.73101562 1.05054688 7.03234375 1.0625 6.3125 C0.4025 5.9825 -0.2575 5.6525 -0.9375 5.3125 C-1.2675 9.2725 -1.5975 13.2325 -1.9375 17.3125 C-3.2575 17.3125 -4.5775 17.3125 -5.9375 17.3125 C-6.2675 13.0225 -6.5975 8.7325 -6.9375 4.3125 C-7.9275 4.8075 -7.9275 4.8075 -8.9375 5.3125 C-9.2941465 8.12504136 -9.38163056 10.91405293 -9.49609375 13.74609375 C-9.64175781 14.59300781 -9.78742187 15.43992187 -9.9375 16.3125 C-10.9275 16.9725 -11.9175 17.6325 -12.9375 18.3125 C-15.47250198 14.50999703 -15.03853525 12.68629385 -14.6875 8.1875 C-14.59984375 6.92679687 -14.5121875 5.66609375 -14.421875 4.3671875 C-14.26203125 3.35914062 -14.1021875 2.35109375 -13.9375 1.3125 C-9.81813887 -0.74718056 -4.52756324 0.03927903 0 0 Z " fill="#464663" transform="translate(59.9375,89.6875)"/>
<path d="M0 0 C0.99 0.66 1.98 1.32 3 2 C4.67299959 1.34938905 6.33859237 0.67966676 8 0 C11.625 -0.375 11.625 -0.375 15 0 C17 1.625 17 1.625 18 4 C17.6875 7.25 17.6875 7.25 17 10 C15.02 10.66 13.04 11.32 11 12 C13.33317216 12.77772405 15.61435923 13.42415568 18 14 C18 15.32 18 16.64 18 18 C12.47322267 18.19392201 8.24385089 17.7479503 3 16 C2.67 16.66 2.34 17.32 2 18 C0.20741442 17.91306859 -1.58415144 17.80489496 -3.375 17.6875 C-4.37273437 17.62949219 -5.37046875 17.57148437 -6.3984375 17.51171875 C-7.25695312 17.34285156 -8.11546875 17.17398438 -9 17 C-11.82909235 12.75636148 -11.64399077 8.98073875 -11 4 C-8.2357645 -0.64391564 -5.12170614 -0.55873158 0 0 Z M-7 6 C-7.16677282 9.58343976 -7.16677282 9.58343976 -7 13 C-4.26094655 14.36952673 -2.02912668 14.12621361 1 14 C1.66 13.67 2.32 13.34 3 13 C3.40729228 10.67843403 3.74438677 8.3431213 4 6 C0.04053907 3.65365278 -3.51497772 2.51497772 -7 6 Z M9 4 C8.67 4.66 8.34 5.32 8 6 C9.98 6 11.96 6 14 6 C13.67 5.34 13.34 4.68 13 4 C11.68 4 10.36 4 9 4 Z M3 13 C3 16 3 16 3 16 Z " fill="#636783" transform="translate(169,90)"/>
<path d="M0 0 C2.0625 0.4375 2.0625 0.4375 4 1 C4.0875127 4.22899426 4.14056146 7.45768116 4.1875 10.6875 C4.21263672 11.59951172 4.23777344 12.51152344 4.26367188 13.45117188 C4.35843071 22.1373981 4.35843071 22.1373981 1 26 C0.34 26 -0.32 26 -1 26 C-1 22.37 -1 18.74 -1 15 C-3.97 15 -6.94 15 -10 15 C-9.98839844 15.69867188 -9.97679687 16.39734375 -9.96484375 17.1171875 C-9.95130859 18.48230469 -9.95130859 18.48230469 -9.9375 19.875 C-9.92589844 20.77992187 -9.91429687 21.68484375 -9.90234375 22.6171875 C-10 25 -10 25 -11 27 C-11.99 27 -12.98 27 -14 27 C-15.04616643 23.8615007 -15.04169366 21.94961697 -14.87890625 18.67578125 C-14.83056641 17.64775391 -14.78222656 16.61972656 -14.73242188 15.56054688 C-14.67634766 14.48869141 -14.62027344 13.41683594 -14.5625 12.3125 C-14.51029297 11.22904297 -14.45808594 10.14558594 -14.40429688 9.02929688 C-14.27458784 6.35257409 -14.13962067 3.67622112 -14 1 C-12.68 1 -11.36 1 -10 1 C-10 4.3 -10 7.6 -10 11 C-7.36 10.67 -4.72 10.34 -2 10 C-1.93941406 9.36191406 -1.87882812 8.72382812 -1.81640625 8.06640625 C-1.73261719 7.24011719 -1.64882813 6.41382812 -1.5625 5.5625 C-1.48128906 4.73878906 -1.40007813 3.91507812 -1.31640625 3.06640625 C-1 1 -1 1 0 0 Z " fill="#47436C" transform="translate(23,82)"/>
<path d="M0 0 C0.87785156 -0.00773437 1.75570312 -0.01546875 2.66015625 -0.0234375 C3.78744141 0.17378906 3.78744141 0.17378906 4.9375 0.375 C6.9375 3.375 6.9375 3.375 6.9375 6.375 C3.9675 6.045 0.9975 5.715 -2.0625 5.375 C-2.0625 7.025 -2.0625 8.675 -2.0625 10.375 C-0.391875 10.7771875 -0.391875 10.7771875 1.3125 11.1875 C4.9375 12.375 4.9375 12.375 6.9375 15.375 C7.15064985 18.7853976 7.022394 21.12031799 5.9375 24.375 C4.2875 24.375 2.6375 24.375 0.9375 24.375 C0.6075 25.035 0.2775 25.695 -0.0625 26.375 C-3.0325 26.045 -6.0025 25.715 -9.0625 25.375 C-9.3925 23.725 -9.7225 22.075 -10.0625 20.375 C-9.44761719 20.32601562 -8.83273438 20.27703125 -8.19921875 20.2265625 C-7.39097656 20.15179688 -6.58273438 20.07703125 -5.75 20 C-4.94949219 19.93039063 -4.14898437 19.86078125 -3.32421875 19.7890625 C-0.79025559 19.47935574 -0.79025559 19.47935574 1.9375 17.375 C-1.3625 15.725 -4.6625 14.075 -8.0625 12.375 C-8.43014117 3.9192531 -8.43014117 3.9192531 -6.8671875 1.60546875 C-4.47798753 -0.02353123 -2.87323006 -0.02538937 0 0 Z " fill="#797894" transform="translate(117.0625,82.625)"/>
<path d="M0 0 C2.4375 1.6875 2.4375 1.6875 4 4 C4.34250494 6.87704151 4.29567565 8.4086487 3 11 C-0.3 11 -3.6 11 -7 11 C-7 11.33 -7 11.66 -7 12 C-5.84371094 12.09087891 -5.84371094 12.09087891 -4.6640625 12.18359375 C-3.66117188 12.26738281 -2.65828125 12.35117188 -1.625 12.4375 C-0.12839844 12.55931641 -0.12839844 12.55931641 1.3984375 12.68359375 C4 13 4 13 6 14 C5.67 14.99 5.34 15.98 5 17 C1.48853313 18.61256204 -2.32346358 19.37737536 -6.1171875 18.5234375 C-10.67428198 16.65143603 -10.67428198 16.65143603 -12 14 C-12.65631559 9.22764809 -12.67379368 6.00048153 -9.9375 1.9375 C-6.25345351 -0.492403 -4.33463758 -0.70930433 0 0 Z M-6 4 C-6 4.99 -6 5.98 -6 7 C-4.35 6.34 -2.7 5.68 -1 5 C-1 4.67 -1 4.34 -1 4 C-2.65 4 -4.3 4 -6 4 Z " fill="#54546B" transform="translate(99,90)"/>
<path d="M0 0 C2.61593153 1.83115207 2.96989455 2.90968366 4 6 C4.0685495 7.89470816 4.08480372 9.7916834 4.0625 11.6875 C4.05347656 12.68136719 4.04445312 13.67523438 4.03515625 14.69921875 C4.02355469 15.45847656 4.01195312 16.21773437 4 17 C1.68624865 18.42425426 0.42016246 19.03742624 -2.32421875 18.79296875 C-3.10410156 18.59316406 -3.88398438 18.39335938 -4.6875 18.1875 C-5.86892578 17.89939453 -5.86892578 17.89939453 -7.07421875 17.60546875 C-9 17 -9 17 -10 16 C-9.4 9.4 -9.4 9.4 -7 7 C-5.01178687 6.60235737 -3.01055661 6.26224651 -1 6 C-4.32534757 4.89155081 -6.62182575 5.15545644 -10 6 C-9.625 3.5625 -9.625 3.5625 -9 1 C-5.95016004 -0.52491998 -3.3576631 -0.23562548 0 0 Z M-6 12 C-5.67 12.99 -5.34 13.98 -5 15 C-4.34 15 -3.68 15 -3 15 C-3.33 14.01 -3.66 13.02 -4 12 C-4.66 12 -5.32 12 -6 12 Z " fill="#555775" transform="translate(152,90)"/>
<path d="M0 0 C1.77375 0.12375 3.5475 0.2475 5.375 0.375 C6.87160156 0.47941406 6.87160156 0.47941406 8.3984375 0.5859375 C11 1 11 1 13 3 C14.04931668 7.63448199 14.43573012 10.82446266 12 15 C10.0625 16.6875 10.0625 16.6875 8 18 C7.01 18.66 6.02 19.32 5 20 C5 20.33 5 20.66 5 21 C3.35 21 1.7 21 0 21 C0 14.07 0 7.14 0 0 Z M5 5 C3.79438816 5.98267859 3.79438816 5.98267859 3.90234375 7.84765625 C3.91394531 8.57855469 3.92554688 9.30945313 3.9375 10.0625 C3.958125 11.361875 3.97875 12.66125 4 14 C5.32 13.34 6.64 12.68 8 12 C8 11.34 8 10.68 8 10 C8.66 10 9.32 10 10 10 C10 8.68 10 7.36 10 6 C8.34385343 5.61781233 6.67542976 5.28604898 5 5 Z " fill="#646388" transform="translate(126,89)"/>
<path d="M0 0 C3.5625 0.25 3.5625 0.25 6.5625 2.25 C8.07563828 6.78941483 8.16758129 10.61272121 6.5 15.125 C4.5625 17.25 4.5625 17.25 1.1875 18.3125 C-2.4375 18.25 -2.4375 18.25 -5.3125 16.6875 C-7.90818888 13.71009217 -8.4375 12.19040155 -8.4375 8.25 C-5.26026657 0.38256484 -5.26026657 0.38256484 0 0 Z M-1.4375 4.25 C-3.17416727 6.44832713 -3.17416727 6.44832713 -4.4375 9.25 C-3.74264736 12.03223378 -3.74264736 12.03223378 -2.4375 14.25 C-0.4575 13.59 1.5225 12.93 3.5625 12.25 C3.5625 9.94 3.5625 7.63 3.5625 5.25 C1.9125 4.92 0.2625 4.59 -1.4375 4.25 Z " fill="#706F88" transform="translate(36.4375,89.75)"/>
<path d="M0 0 C1.28132813 0.00902344 2.56265625 0.01804687 3.8828125 0.02734375 C4.87023438 0.03894531 5.85765625 0.05054687 6.875 0.0625 C3.875 2.0625 3.875 2.0625 0.875 2.0625 C1.205 2.7225 1.535 3.3825 1.875 4.0625 C3.525 3.7325 5.175 3.4025 6.875 3.0625 C8.29134833 5.89519666 8.2213005 8.53716438 8.4375 11.6875 C8.56318359 13.47027344 8.56318359 13.47027344 8.69140625 15.2890625 C8.75199219 16.20429687 8.81257813 17.11953125 8.875 18.0625 C7.885 17.7325 6.895 17.4025 5.875 17.0625 C5.875 13.4325 5.875 9.8025 5.875 6.0625 C5.215 5.7325 4.555 5.4025 3.875 5.0625 C3.545 9.0225 3.215 12.9825 2.875 17.0625 C1.555 17.0625 0.235 17.0625 -1.125 17.0625 C-1.455 12.7725 -1.785 8.4825 -2.125 4.0625 C-3.115 4.5575 -3.115 4.5575 -4.125 5.0625 C-4.4816465 7.87504136 -4.56913056 10.66405293 -4.68359375 13.49609375 C-4.82925781 14.34300781 -4.97492187 15.18992187 -5.125 16.0625 C-6.115 16.7225 -7.105 17.3825 -8.125 18.0625 C-10.66000198 14.25999703 -10.22603525 12.43629385 -9.875 7.9375 C-9.78734375 6.67679687 -9.6996875 5.41609375 -9.609375 4.1171875 C-9.44953125 3.10914062 -9.2896875 2.10109375 -9.125 1.0625 C-6.12186252 -0.43906874 -3.33432478 -0.03031204 0 0 Z " fill="#A6A7BB" transform="translate(55.125,89.9375)"/>
<path d="M0 0 C2 1 2 1 2.61889648 2.58691406 C3.14676597 5.92929843 3.12248852 9.23577141 3.09765625 12.609375 C3.0962413 13.33618469 3.09482635 14.06299438 3.09336853 14.81182861 C3.08778792 17.12459494 3.07523904 19.43726312 3.0625 21.75 C3.05748249 23.32161318 3.05292002 24.89322789 3.04882812 26.46484375 C3.03782485 30.30993343 3.02057361 34.1549501 3 38 C-1.34777781 38.12460298 -4.9166884 37.98845439 -9.0234375 36.5390625 C-9.89871094 36.23226562 -10.77398437 35.92546875 -11.67578125 35.609375 C-12.56652344 35.28453125 -13.45726563 34.9596875 -14.375 34.625 C-15.74591797 34.14933594 -15.74591797 34.14933594 -17.14453125 33.6640625 C-23.8665447 31.2669106 -23.8665447 31.2669106 -25 29 C-22.69 29.33 -20.38 29.66 -18 30 C-18 30.66 -18 31.32 -18 32 C-15.69 32 -13.38 32 -11 32 C-11 32.66 -11 33.32 -11 34 C-9.35 34.33 -7.7 34.66 -6 35 C-5.67 34.01 -5.34 33.02 -5 32 C-4.01 32 -3.02 32 -2 32 C-1.67 32.66 -1.34 33.32 -1 34 C-0.34 34 0.32 34 1 34 C0.8613598 29.7289011 0.71286099 25.45820108 0.5625 21.1875 C0.52318359 19.97255859 0.48386719 18.75761719 0.44335938 17.50585938 C0.40146484 16.34248047 0.35957031 15.17910156 0.31640625 13.98046875 C0.27974854 12.90692139 0.24309082 11.83337402 0.20532227 10.72729492 C0.10458153 7.90688447 0.10458153 7.90688447 -1 5 C-0.5625 2.3125 -0.5625 2.3125 0 0 Z " fill="#5C376B" transform="translate(92,25)"/>
<path d="M0 0 C0.33 1.32 0.66 2.64 1 4 C-1.31 4.66 -3.62 5.32 -6 6 C-6.33 8.31 -6.66 10.62 -7 13 C-3.7 13 -0.4 13 3 13 C3 14.65 3 16.3 3 18 C1.04082341 17.9131252 -0.91741871 17.80495488 -2.875 17.6875 C-3.96554688 17.62949219 -5.05609375 17.57148437 -6.1796875 17.51171875 C-7.11039063 17.34285156 -8.04109375 17.17398438 -9 17 C-11.82909235 12.75636148 -11.64399077 8.98073875 -11 4 C-8.21528739 -0.67831719 -5.14045738 -0.3954198 0 0 Z " fill="#747692" transform="translate(169,90)"/>
<path d="M0 0 C3.78630702 0.75567052 5.4041044 2.12597273 8 5 C6.68 5.33 5.36 5.66 4 6 C3.67 5.34 3.34 4.68 3 4 C2.67 18.52 2.34 33.04 2 48 C2.66 48 3.32 48 4 48 C4.66 49.98 5.32 51.96 6 54 C3.62069928 53.04827971 2.26717757 52.42379589 0.88137817 50.22564697 C-0.12062997 47.69538647 -0.24134706 45.85594121 -0.22705078 43.13964844 C-0.22689972 42.17895447 -0.22674866 41.2182605 -0.22659302 40.22845459 C-0.21627045 39.19915833 -0.20594788 38.16986206 -0.1953125 37.109375 C-0.1924826 36.04962463 -0.18965271 34.98987427 -0.18673706 33.89801025 C-0.17554734 30.51522503 -0.1504447 27.13270513 -0.125 23.75 C-0.11496865 21.45573299 -0.10584307 19.16146183 -0.09765625 16.8671875 C-0.07561196 11.24470123 -0.04214627 5.62236957 0 0 Z " fill="#8C91AA" transform="translate(61,0)"/>
<path d="M0 0 C2.0625 0.4375 2.0625 0.4375 4 1 C4.0875127 4.22899426 4.14056146 7.45768116 4.1875 10.6875 C4.21263672 11.59951172 4.23777344 12.51152344 4.26367188 13.45117188 C4.35843071 22.1373981 4.35843071 22.1373981 1 26 C0.34 26 -0.32 26 -1 26 C-1.05410687 24.22950311 -1.09284119 22.45853151 -1.125 20.6875 C-1.14820313 19.70136719 -1.17140625 18.71523437 -1.1953125 17.69921875 C-1 15 -1 15 1 12 C-2.96 12 -6.92 12 -11 12 C-11 8.7 -11 5.4 -11 2 C-11.99 1.67 -12.98 1.34 -14 1 C-12.68 1 -11.36 1 -10 1 C-10 4.3 -10 7.6 -10 11 C-7.36 10.67 -4.72 10.34 -2 10 C-1.93941406 9.36191406 -1.87882812 8.72382812 -1.81640625 8.06640625 C-1.73261719 7.24011719 -1.64882813 6.41382812 -1.5625 5.5625 C-1.48128906 4.73878906 -1.40007813 3.91507812 -1.31640625 3.06640625 C-1 1 -1 1 0 0 Z " fill="#8F8FA7" transform="translate(23,82)"/>
<path d="M0 0 C0.33 0 0.66 0 1 0 C1.33 1.65 1.66 3.3 2 5 C2.99 5.33 3.98 5.66 5 6 C5 6.33 5 6.66 5 7 C6.15628906 7.09087891 6.15628906 7.09087891 7.3359375 7.18359375 C8.84027344 7.30927734 8.84027344 7.30927734 10.375 7.4375 C11.87160156 7.55931641 11.87160156 7.55931641 13.3984375 7.68359375 C16 8 16 8 18 9 C17.67 9.99 17.34 10.98 17 12 C13.48853313 13.61256204 9.67653642 14.37737536 5.8828125 13.5234375 C1.32571802 11.65143603 1.32571802 11.65143603 0 9 C-0.06950541 7.45976004 -0.08452357 5.91665012 -0.0625 4.375 C-0.05347656 3.55773437 -0.04445313 2.74046875 -0.03515625 1.8984375 C-0.02355469 1.27195312 -0.01195313 0.64546875 0 0 Z " fill="#ABABBF" transform="translate(87,95)"/>
<path d="M0 0 C1.77375 0.12375 3.5475 0.2475 5.375 0.375 C6.87160156 0.47941406 6.87160156 0.47941406 8.3984375 0.5859375 C11 1 11 1 13 3 C14.05136722 7.64353854 14.35935609 10.77799436 12 15 C11.01 15.495 11.01 15.495 10 16 C10 15.34 10 14.68 10 14 C8.02 14.33 6.04 14.66 4 15 C5.28062485 13.2925002 6.61767557 11.62626404 8 10 C8.66 10 9.32 10 10 10 C10.38133299 8.0085944 10.71325582 6.00720923 11 4 C8.59629915 1.59629915 4.37855504 2.375395 1 2 C1 8.27 1 14.54 1 21 C0.67 21 0.34 21 0 21 C0 14.07 0 7.14 0 0 Z " fill="#C4C4D7" transform="translate(126,89)"/>
<path d="M0 0 C0 6.27 0 12.54 0 19 C-1.32 18.67 -2.64 18.34 -4 18 C-4 12.39 -4 6.78 -4 1 C-2 0 -2 0 0 0 Z " fill="#7F809B" transform="translate(83,89)"/>
<path d="M0 0 C0.91058531 3.07322544 1.08886184 5.80097361 1 9 C-0.8125 9.6875 -0.8125 9.6875 -3 10 C-4.75 8.5625 -4.75 8.5625 -6 7 C-5.67 7.99 -5.34 8.98 -5 10 C-6.98 10.99 -6.98 10.99 -9 12 C-9.33 11.67 -9.66 11.34 -10 11 C-9.4 4.4 -9.4 4.4 -7 2 C-4.68234271 1.28072705 -2.34904126 0.6090107 0 0 Z " fill="#8686A3" transform="translate(152,95)"/>
<path d="M0 0 C3.4375 0.4375 3.4375 0.4375 6.4375 2.4375 C6.1075 3.0975 5.7775 3.7575 5.4375 4.4375 C4.4475 3.7775 3.4575 3.1175 2.4375 2.4375 C-0.18781524 2.27036431 -0.18781524 2.27036431 -2.5625 2.4375 C-0.2525 3.0975 2.0575 3.7575 4.4375 4.4375 C4.4375 7.0775 4.4375 9.7175 4.4375 12.4375 C4.1075 12.4375 3.7775 12.4375 3.4375 12.4375 C3.1075 10.1275 2.7775 7.8175 2.4375 5.4375 C0.7875 5.7675 -0.8625 6.0975 -2.5625 6.4375 C-3.77331851 9.54290926 -3.77331851 9.54290926 -3.5625 13.4375 C-4.5525 12.4475 -5.5425 11.4575 -6.5625 10.4375 C-7.2225 11.0975 -7.8825 11.7575 -8.5625 12.4375 C-8.05507082 5.96777798 -7.15860872 0.87912739 0 0 Z " fill="#A4A4B8" transform="translate(36.5625,89.5625)"/>
<path d="M0 0 C0.90492187 0.02320312 1.80984375 0.04640625 2.7421875 0.0703125 C4.10730469 0.09738281 4.10730469 0.09738281 5.5 0.125 C6.19867188 0.14820312 6.89734375 0.17140625 7.6171875 0.1953125 C7.6171875 1.5153125 7.6171875 2.8353125 7.6171875 4.1953125 C4.6471875 3.8653125 1.6771875 3.5353125 -1.3828125 3.1953125 C-1.3828125 5.8353125 -1.3828125 8.4753125 -1.3828125 11.1953125 C0.2671875 11.5253125 1.9171875 11.8553125 3.6171875 12.1953125 C1.03861885 13.11622988 0.0228588 13.38038152 -2.5234375 12.21875 C-3.13703125 11.88101563 -3.750625 11.54328125 -4.3828125 11.1953125 C-4.43680986 9.73738366 -4.47560427 8.27888538 -4.5078125 6.8203125 C-4.54261719 5.60214844 -4.54261719 5.60214844 -4.578125 4.359375 C-4.28496522 1.11116468 -3.20109799 0.26238508 0 0 Z " fill="#515277" transform="translate(114.3828125,82.8046875)"/>
<path d="M0 0 C2.31 0.33 4.62 0.66 7 1 C7 1.66 7 2.32 7 3 C9.31 3 11.62 3 14 3 C14 3.66 14 4.32 14 5 C15.65 5.33 17.3 5.66 19 6 C19.33 5.01 19.66 4.02 20 3 C20.99 3 21.98 3 23 3 C23.33 3.66 23.66 4.32 24 5 C24.66 5 25.32 5 26 5 C26 6.32 26 7.64 26 9 C19.96925852 8.44552774 14.74359339 7.12790187 9.0625 5.0625 C8.29615234 4.79759766 7.52980469 4.53269531 6.74023438 4.25976562 C1.12828083 2.25656166 1.12828083 2.25656166 0 0 Z " fill="#505B81" transform="translate(67,54)"/>
<path d="M0 0 C-3.20379147 5.66824645 -3.20379147 5.66824645 -7 7.25 C-7.99 7.4975 -8.98 7.745 -10 8 C-11.34882408 8.63474075 -12.6846659 9.29848848 -14 10 C-15.33333333 10.66666667 -16.66666667 11.33333333 -18 12 C-6.15384615 -3.07692308 -6.15384615 -3.07692308 0 0 Z " fill="#D05385" transform="translate(124,8)"/>
<path d="M0 0 C4.455 0.99 4.455 0.99 9 2 C5.03375331 5.96624669 -1.84244389 7.65324675 -7.34765625 8.2578125 C-9.25 8.25 -9.25 8.25 -12 8 C-10.68 7.67 -9.36 7.34 -8 7 C-8 5.35 -8 3.7 -8 2 C-7.67 2.99 -7.34 3.98 -7 5 C-3.45481116 3.60240095 -3.45481116 3.60240095 0 2 C0 1.34 0 0.68 0 0 Z " fill="#DE6693" transform="translate(103,56)"/>
<path d="M0 0 C0.66 0 1.32 0 2 0 C2 0.99 2 1.98 2 3 C3.98 3 5.96 3 8 3 C8 3.33 8 3.66 8 4 C6.02 4.33 4.04 4.66 2 5 C2 6.32 2 7.64 2 9 C4.97 9.33 7.94 9.66 11 10 C11 10.66 11 11.32 11 12 C5.375 13.125 5.375 13.125 2 12 C-0.13586678 8.79619983 -0.23132175 7.98060033 -0.125 4.3125 C-0.10695312 3.50425781 -0.08890625 2.69601563 -0.0703125 1.86328125 C-0.04710937 1.24839844 -0.02390625 0.63351563 0 0 Z " fill="#4D527D" transform="translate(174,95)"/>
<path d="M0 0 C3.3 0 6.6 0 10 0 C9.67 0.66 9.34 1.32 9 2 C6.4375 2.625 6.4375 2.625 4 3 C6.33317216 3.77772405 8.61435923 4.42415568 11 5 C11 6.32 11 7.64 11 9 C10.34 8.67 9.68 8.34 9 8 C9 7.34 9 6.68 9 6 C7.906875 6.061875 6.81375 6.12375 5.6875 6.1875 C2 6 2 6 0.0625 4.5 C-0.4634375 3.7575 -0.4634375 3.7575 -1 3 C-0.67 2.01 -0.34 1.02 0 0 Z " fill="#D8D9E7" transform="translate(176,99)"/>
<path d="M0 0 C0.99 0.33 1.98 0.66 3 1 C3.33 3.31 3.66 5.62 4 8 C2.046875 7.73958333 0.09375 7.47916667 -1.859375 7.21875 C-4.30458395 6.93222643 -4.30458395 6.93222643 -8 7 C-7.67 6.01 -7.34 5.02 -7 4 C-6.67 4.33 -6.34 4.66 -6 5 C-3.94603274 4.59070014 -3.94603274 4.59070014 -2 4 C-3.32 3.34 -4.64 2.68 -6 2 C-4.02 1.67 -2.04 1.34 0 1 C0 0.67 0 0.34 0 0 Z " fill="#A2A2AF" transform="translate(99,91)"/>
<path d="M0 0 C0 3.96 0 7.92 0 12 C-0.99 12.495 -0.99 12.495 -2 13 C-2.66 14.32 -3.32 15.64 -4 17 C-3.67 12.38 -3.34 7.76 -3 3 C-4.32 2.67 -5.64 2.34 -7 2 C-1.125 0 -1.125 0 0 0 Z " fill="#C72E73" transform="translate(127,5)"/>
<path d="M0 0 C2 2 2 2 2.1953125 3.9453125 C2.13020833 5.96354167 2.06510417 7.98177083 2 10 C1.67 10 1.34 10 1 10 C0.34 7.69 -0.32 5.38 -1 3 C-2.65 3 -4.3 3 -6 3 C-6.33 7.95 -6.66 12.9 -7 18 C-7.33 18 -7.66 18 -8 18 C-8 12.39 -8 6.78 -8 1 C-5.03104944 0.01034981 -3.0913386 -0.23779528 0 0 Z " fill="#0A0933" transform="translate(136,91)"/>
<path d="M0 0 C0.99 0.495 0.99 0.495 2 1 C2 4.63 2 8.26 2 12 C2.66 12 3.32 12 4 12 C4 8.04 4 4.08 4 0 C4.33 0 4.66 0 5 0 C5 4.29 5 8.58 5 13 C3.68 13.33 2.36 13.66 1 14 C0 13 0 13 -0.09765625 10.05859375 C-0.08605469 8.86363281 -0.07445313 7.66867188 -0.0625 6.4375 C-0.05347656 5.23996094 -0.04445313 4.04242188 -0.03515625 2.80859375 C-0.02355469 1.88175781 -0.01195313 0.95492187 0 0 Z " fill="#B9BACC" transform="translate(70,94)"/>
<path d="M0 0 C1.9375 1.5 1.9375 1.5 3 3 C2.67 3.66 2.34 4.32 2 5 C1.34 4.34 0.68 3.68 0 3 C-2.65537372 2.43479997 -5.29144713 2.26211802 -8 2 C-8 2.66 -8 3.32 -8 4 C-4.535 3.505 -4.535 3.505 -1 3 C-0.67 3.66 -0.34 4.32 0 5 C-3.3 5.33 -6.6 5.66 -10 6 C-9.625 3.5625 -9.625 3.5625 -9 1 C-5.95016004 -0.52491998 -3.3576631 -0.23562548 0 0 Z " fill="#A8A9BC" transform="translate(152,90)"/>
<path d="M0 0 C-0.66 0.66 -1.32 1.32 -2 2 C-2.28108663 4.37098906 -2.28108663 4.37098906 -2.1875 7 C-2.18105469 7.886875 -2.17460937 8.77375 -2.16796875 9.6875 C-2.14581927 12.02606345 -2.14581927 12.02606345 -1 14 C-2.32 13.67 -3.64 13.34 -5 13 C-4.96519531 12.37351562 -4.93039063 11.74703125 -4.89453125 11.1015625 C-4.86746094 10.28429687 -4.84039062 9.46703125 -4.8125 8.625 C-4.77769531 7.81289062 -4.74289063 7.00078125 -4.70703125 6.1640625 C-4.80371094 5.44992188 -4.90039062 4.73578125 -5 4 C-5.99 3.34 -6.98 2.68 -8 2 C-5.44123378 -0.55876622 -3.37797483 -1.68898741 0 0 Z " fill="#A8ABC4" transform="translate(177,92)"/>
<path d="M0 0 C0.99 0.495 0.99 0.495 2 1 C2.02699725 3.27076842 2.04639453 5.54162821 2.0625 7.8125 C2.07410156 9.07707031 2.08570312 10.34164062 2.09765625 11.64453125 C2 15 2 15 1 18 C2.65 18.33 4.3 18.66 6 19 C5.34 19.66 4.68 20.32 4 21 C2.68 21 1.36 21 0 21 C0 14.07 0 7.14 0 0 Z " fill="#E63B79" transform="translate(96,40)"/>
<path d="M0 0 C2.64 0 5.28 0 8 0 C8 0.33 8 0.66 8 1 C6.35 1.33 4.7 1.66 3 2 C2.67 5.96 2.34 9.92 2 14 C1.34 14 0.68 14 0 14 C0 9.38 0 4.76 0 0 Z " fill="#2C2A47" transform="translate(47,92)"/>
<path d="M0 0 C0.33 0.66 0.66 1.32 1 2 C5.455 1.505 5.455 1.505 10 1 C10.66 2.32 11.32 3.64 12 5 C7.71 4.67 3.42 4.34 -1 4 C-0.67 2.68 -0.34 1.36 0 0 Z " fill="#686574" transform="translate(90,96)"/>
<path d="M0 0 C0.12375 0.804375 0.2475 1.60875 0.375 2.4375 C0.58125 3.283125 0.7875 4.12875 1 5 C1.66 5.33 2.32 5.66 3 6 C-0.3 5.67 -3.6 5.34 -7 5 C-7 4.01 -7 3.02 -7 2 C-7.66 1.67 -8.32 1.34 -9 1 C-5.92677456 0.08941469 -3.19902639 -0.08886184 0 0 Z M-5 1 C-5.33 1.66 -5.66 2.32 -6 3 C-4.02 3 -2.04 3 0 3 C-0.33 2.34 -0.66 1.68 -1 1 C-2.32 1 -3.64 1 -5 1 Z " fill="#898FA9" transform="translate(183,93)"/>
<path d="M0 0 C0.66 0.33 1.32 0.66 2 1 C2 3.31 2 5.62 2 8 C1.01 8.33 0.02 8.66 -1 9 C-1.33 9.66 -1.66 10.32 -2 11 C-2.05399736 9.54207116 -2.09279177 8.08357288 -2.125 6.625 C-2.15980469 5.40683594 -2.15980469 5.40683594 -2.1953125 4.1640625 C-2 2 -2 2 0 0 Z " fill="#BF2E6A" transform="translate(126,40)"/>
<path d="M0 0 C2.31 0.33 4.62 0.66 7 1 C7 1.66 7 2.32 7 3 C9.31 3 11.62 3 14 3 C14 3.66 14 4.32 14 5 C14.99 5.33 15.98 5.66 17 6 C15 7 15 7 11.77734375 6.07421875 C10.49453658 5.61997447 9.21466818 5.15736546 7.9375 4.6875 C7.28716797 4.46126953 6.63683594 4.23503906 5.96679688 4.00195312 C1.1272371 2.25447421 1.1272371 2.25447421 0 0 Z " fill="#8C8FA5" transform="translate(67,54)"/>
<path d="M0 0 C2 2 2 2 2 5 C-0.97 4.67 -3.94 4.34 -7 4 C-7 5.65 -7 7.3 -7 9 C-7.66 9 -8.32 9 -9 9 C-9 6.69 -9 4.38 -9 2 C-6.03 2.33 -3.06 2.66 0 3 C0 2.01 0 1.02 0 0 Z " fill="#BBBDD1" transform="translate(122,84)"/>
<path d="M0 0 C1.32 0 2.64 0 4 0 C4 1.65 4 3.3 4 5 C3.01 5.33 2.02 5.66 1 6 C0.34 5.67 -0.32 5.34 -1 5 C-0.67 3.35 -0.34 1.7 0 0 Z " fill="#A09FAE" transform="translate(81,80)"/>
<path d="M0 0 C0.33 0.99 0.66 1.98 1 3 C3.64 3 6.28 3 9 3 C4.48332093 6.01111938 1.3360009 6.10067926 -4 6 C-2.68 5.67 -1.36 5.34 0 5 C0 3.35 0 1.7 0 0 Z " fill="#E192B3" transform="translate(95,58)"/>
<path d="M0 0 C0.33 0 0.66 0 1 0 C1.061875 0.94875 1.12375 1.8975 1.1875 2.875 C1.455625 3.90625 1.72375 4.9375 2 6 C4.46255685 7.45291273 4.46255685 7.45291273 7 8 C4.39417629 8.93065133 3.35801776 9.14917407 0.75 8.0625 C0.1725 7.711875 -0.405 7.36125 -1 7 C-1.04254356 5.00045254 -1.04080783 2.99958364 -1 1 C-0.67 0.67 -0.34 0.34 0 0 Z " fill="#131345" transform="translate(111,87)"/>
<path d="M0 0 C2.9375 0.375 2.9375 0.375 6 1 C6.33 1.66 6.66 2.32 7 3 C6.01 3 5.02 3 4 3 C3.67 3.99 3.34 4.98 3 6 C2.01 5.67 1.02 5.34 0 5 C0 3.35 0 1.7 0 0 Z " fill="#404B85" transform="translate(72,10)"/>
<path d="M0 0 C2.375 -0.125 2.375 -0.125 5 0 C7 2 7 2 7.1953125 3.9453125 C7.13020833 5.96354167 7.06510417 7.98177083 7 10 C6.67 10 6.34 10 6 10 C5.7525 8.88625 5.505 7.7725 5.25 6.625 C4.38994661 2.95384802 4.38994661 2.95384802 1.875 1.5625 C1.25625 1.376875 0.6375 1.19125 0 1 C0 0.67 0 0.34 0 0 Z " fill="#232248" transform="translate(131,91)"/>
<path d="M0 0 C0 0.33 0 0.66 0 1 C-3.3 1 -6.6 1 -10 1 C-9.67 1.99 -9.34 2.98 -9 4 C-9.99 4 -10.98 4 -12 4 C-12 2.68 -12 1.36 -12 0 C-10.56359829 -0.19573608 -9.12580496 -0.38127816 -7.6875 -0.5625 C-6.88699219 -0.66691406 -6.08648437 -0.77132812 -5.26171875 -0.87890625 C-3 -1 -3 -1 0 0 Z " fill="#EAE9F3" transform="translate(119,103)"/>
<path d="M0 0 C-0.33 1.65 -0.66 3.3 -1 5 C-1.99 5 -2.98 5 -4 5 C-5.6875 3 -5.6875 3 -7 1 C-4.50935112 0.31292445 -2.62113708 0 0 0 Z " fill="#D2D5E4" transform="translate(153,100)"/>
<path d="M0 0 C0.66 1.32 1.32 2.64 2 4 C1.01 4.33 0.02 4.66 -1 5 C-1.33 5.66 -1.66 6.32 -2 7 C-2.99 6.67 -3.98 6.34 -5 6 C-3.86695008 2.60085025 -2.87481525 1.94745549 0 0 Z " fill="#C93970" transform="translate(102,24)"/>
<path d="M0 0 C3.96 0 7.92 0 12 0 C8 2 8 2 5 3 C2.3125 2.0625 2.3125 2.0625 0 1 C0 0.67 0 0.34 0 0 Z " fill="#BAC0D4" transform="translate(90,106)"/>
<path d="M0 0 C0 1.32 0 2.64 0 4 C-0.66 3.67 -1.32 3.34 -2 3 C-2 2.34 -2 1.68 -2 1 C-4.31 1 -6.62 1 -9 1 C-9 0.67 -9 0.34 -9 0 C-5.62182575 -0.84454356 -3.32534757 -1.10844919 0 0 Z " fill="#B6B9CE" transform="translate(187,104)"/>
<path d="M0 0 C1.37562854 1.28965176 2.70766393 2.62689293 4 4 C4 4.66 4 5.32 4 6 C4.66 6.33 5.32 6.66 6 7 C1.125 6.125 1.125 6.125 0 5 C-0.04063832 3.33382885 -0.042721 1.66611905 0 0 Z " fill="#494966" transform="translate(29,99)"/>
<path d="M0 0 C-1.32 1.65 -2.64 3.3 -4 5 C-5.32 4.01 -6.64 3.02 -8 2 C-5.44123378 -0.55876622 -3.37797483 -1.68898741 0 0 Z " fill="#D8DCE9" transform="translate(177,92)"/>
<path d="M0 0 C5.94 0.99 5.94 0.99 12 2 C12 2.33 12 2.66 12 3 C8.37 3 4.74 3 1 3 C0.67 2.01 0.34 1.02 0 0 Z " fill="#191B4C" transform="translate(89,103)"/>
<path d="M0 0 C0.66 0 1.32 0 2 0 C2 0.99 2 1.98 2 3 C3.98 3 5.96 3 8 3 C8 3.33 8 3.66 8 4 C5.36 4.66 2.72 5.32 0 6 C0 4.02 0 2.04 0 0 Z " fill="#1A204A" transform="translate(174,95)"/>
<path d="M0 0 C3 1 3 1 3 1 Z " fill="#E5FFFF" transform="translate(163,108)"/>
<path d="M0 0 C3 1 3 1 3 1 Z " fill="#EEEEFF" transform="translate(110,108)"/>
<path d="" fill="#FFFFFF" transform="translate(0,0)"/>
<path d="" fill="#FFFFFF" transform="translate(0,0)"/>
<path d="M0 0 C3 1 3 1 3 1 Z " fill="#F4F4F4" transform="translate(131,95)"/>
<path d="M0 0 C2 1 2 1 2 1 Z " fill="#F4F4F4" transform="translate(131,108)"/>
<path d="" fill="#FFFFFF" transform="translate(0,0)"/>
<path d="" fill="#FFFFFF" transform="translate(0,0)"/>
<path d="" fill="#FFFFFF" transform="translate(0,0)"/>
<path d="" fill="#FFFFFF" transform="translate(0,0)"/>
<path d="" fill="#FFFFFF" transform="translate(0,0)"/>
<path d="" fill="#FFFFFF" transform="translate(0,0)"/>
<path d="" fill="#FFFFFF" transform="translate(0,0)"/>
<path d="" fill="#FFFFFF" transform="translate(0,0)"/>
<path d="" fill="#FFFFFF" transform="translate(0,0)"/>
<path d="" fill="#FFFFFF" transform="translate(0,0)"/>
<path d="" fill="#FFFFFF" transform="translate(0,0)"/>
<path d="" fill="#FFFFFF" transform="translate(0,0)"/>
<path d="" fill="#FFFFFF" transform="translate(0,0)"/>
<path d="" fill="#FFFFFF" transform="translate(0,0)"/>
<path d="" fill="#FFFFFF" transform="translate(0,0)"/>
</svg>
